<svg xmlns="http://www.w3.org/2000/svg" xmlns:xlink="http://www.w3.org/1999/xlink" width="1366" zoomAndPan="magnify" viewBox="0 0 1024.5 576" height="768" preserveAspectRatio="xMidYMid meet" version="1.0"><defs><g/><clipPath id="d5fe22534f"><path d="M 0 0.140625 L 87 0.140625 L 87 207 L 0 207 Z M 0 0.140625 " clip-rule="nonzero"/></clipPath><clipPath id="1908bc6a67"><path d="M 101 0.140625 L 209 0.140625 L 209 209 L 101 209 Z M 101 0.140625 " clip-rule="nonzero"/></clipPath><clipPath id="e2fe724c36"><path d="M 225 0.140625 L 394 0.140625 L 394 207 L 225 207 Z M 225 0.140625 " clip-rule="nonzero"/></clipPath><clipPath id="077790ddc0"><path d="M 410 0.140625 L 518 0.140625 L 518 209 L 410 209 Z M 410 0.140625 " clip-rule="nonzero"/></clipPath><clipPath id="67e3cef0a4"><path d="M 534 0.140625 L 641 0.140625 L 641 207 L 534 207 Z M 534 0.140625 " clip-rule="nonzero"/></clipPath><clipPath id="0fe2d2c412"><path d="M 657 0.140625 L 700 0.140625 L 700 207 L 657 207 Z M 657 0.140625 " clip-rule="nonzero"/></clipPath><clipPath id="52642d1d40"><path d="M 714 0.140625 L 822 0.140625 L 822 209 L 714 209 Z M 714 0.140625 " clip-rule="nonzero"/></clipPath><clipPath id="e24176b6d7"><path d="M 835 0.140625 L 947 0.140625 L 947 207 L 835 207 Z M 835 0.140625 " clip-rule="nonzero"/></clipPath><clipPath id="5381b10c43"><path d="M 535 381 L 699 381 L 699 575.859375 L 535 575.859375 Z M 535 381 " clip-rule="nonzero"/></clipPath><clipPath id="462748ff22"><path d="M 711 381 L 823 381 L 823 575.859375 L 711 575.859375 Z M 711 381 " clip-rule="nonzero"/></clipPath><clipPath id="6d1c2a558b"><path d="M 833 379 L 938 379 L 938 575.859375 L 833 575.859375 Z M 833 379 " clip-rule="nonzero"/></clipPath><clipPath id="2d1788ea6e"><path d="M 950 381 L 1024 381 L 1024 575.859375 L 950 575.859375 Z M 950 381 " clip-rule="nonzero"/></clipPath></defs><g clip-path="url(#d5fe22534f)"><g fill="#000000" fill-opacity="1"><g transform="translate(-29.778617, 206.789822)"><g><path d="M 9.53125 -215.546875 L 69 -215.546875 C 84.394531 -215.546875 95.9375 -211.28125 103.625 -202.75 C 111.320312 -194.21875 115.253906 -181.585938 115.421875 -164.859375 L 115.921875 -63.984375 C 116.085938 -42.742188 112.40625 -26.769531 104.875 -16.0625 C 97.351562 -5.351562 84.894531 0 67.5 0 L 9.53125 0 Z M 60.46875 -38.140625 C 68.332031 -38.140625 72.265625 -41.988281 72.265625 -49.6875 L 72.265625 -160.84375 C 72.265625 -165.695312 71.882812 -169.332031 71.125 -171.75 C 70.375 -174.175781 68.992188 -175.804688 66.984375 -176.640625 C 64.984375 -177.484375 61.894531 -177.90625 57.71875 -177.90625 L 52.9375 -177.90625 L 52.9375 -38.140625 Z M 60.46875 -38.140625 "/></g></g></g></g><g clip-path="url(#1908bc6a67)"><g fill="#000000" fill-opacity="1"><g transform="translate(93.924428, 206.789822)"><g><path d="M 60.96875 2 C 43.570312 2 30.359375 -3.304688 21.328125 -13.921875 C 12.296875 -24.546875 7.78125 -39.476562 7.78125 -58.71875 L 7.78125 -161.34375 C 7.78125 -179.90625 12.296875 -193.910156 21.328125 -203.359375 C 30.359375 -212.816406 43.570312 -217.546875 60.96875 -217.546875 C 78.363281 -217.546875 91.578125 -212.816406 100.609375 -203.359375 C 109.648438 -193.910156 114.171875 -179.90625 114.171875 -161.34375 L 114.171875 -58.71875 C 114.171875 -39.3125 109.648438 -24.335938 100.609375 -13.796875 C 91.578125 -3.265625 78.363281 2 60.96875 2 Z M 60.96875 -37.640625 C 64.820312 -37.640625 67.414062 -39.3125 68.75 -42.65625 C 70.09375 -46 70.765625 -50.679688 70.765625 -56.703125 L 70.765625 -162.09375 C 70.765625 -166.78125 70.132812 -170.585938 68.875 -173.515625 C 67.625 -176.441406 65.070312 -177.90625 61.21875 -177.90625 C 54.03125 -177.90625 50.4375 -172.46875 50.4375 -161.59375 L 50.4375 -56.453125 C 50.4375 -50.265625 51.1875 -45.582031 52.6875 -42.40625 C 54.195312 -39.226562 56.957031 -37.640625 60.96875 -37.640625 Z M 60.96875 -37.640625 "/></g></g></g></g><g clip-path="url(#e2fe724c36)"><g fill="#000000" fill-opacity="1"><g transform="translate(215.871028, 206.789822)"><g><path d="M 9.53125 0 L 9.53125 -215.546875 L 75.28125 -215.546875 L 93.34375 -84.0625 L 111.40625 -215.546875 L 177.65625 -215.546875 L 177.65625 0 L 138.265625 0 L 138.265625 -155.328125 L 113.421875 0 L 74.78125 0 L 48.421875 -155.328125 L 48.421875 0 Z M 9.53125 0 "/></g></g></g></g><g clip-path="url(#077790ddc0)"><g fill="#000000" fill-opacity="1"><g transform="translate(403.056541, 206.789822)"><g><path d="M 60.96875 2 C 43.570312 2 30.359375 -3.304688 21.328125 -13.921875 C 12.296875 -24.546875 7.78125 -39.476562 7.78125 -58.71875 L 7.78125 -161.34375 C 7.78125 -179.90625 12.296875 -193.910156 21.328125 -203.359375 C 30.359375 -212.816406 43.570312 -217.546875 60.96875 -217.546875 C 78.363281 -217.546875 91.578125 -212.816406 100.609375 -203.359375 C 109.648438 -193.910156 114.171875 -179.90625 114.171875 -161.34375 L 114.171875 -58.71875 C 114.171875 -39.3125 109.648438 -24.335938 100.609375 -13.796875 C 91.578125 -3.265625 78.363281 2 60.96875 2 Z M 60.96875 -37.640625 C 64.820312 -37.640625 67.414062 -39.3125 68.75 -42.65625 C 70.09375 -46 70.765625 -50.679688 70.765625 -56.703125 L 70.765625 -162.09375 C 70.765625 -166.78125 70.132812 -170.585938 68.875 -173.515625 C 67.625 -176.441406 65.070312 -177.90625 61.21875 -177.90625 C 54.03125 -177.90625 50.4375 -172.46875 50.4375 -161.59375 L 50.4375 -56.453125 C 50.4375 -50.265625 51.1875 -45.582031 52.6875 -42.40625 C 54.195312 -39.226562 56.957031 -37.640625 60.96875 -37.640625 Z M 60.96875 -37.640625 "/></g></g></g></g><g clip-path="url(#67e3cef0a4)"><g fill="#000000" fill-opacity="1"><g transform="translate(525.003141, 206.789822)"><g><path d="M 9.53125 0 L 9.53125 -215.546875 L 53.953125 -215.546875 L 73.765625 -112.40625 L 73.765625 -215.546875 L 115.421875 -215.546875 L 115.421875 0 L 73.265625 0 L 51.6875 -107.890625 L 51.6875 0 Z M 9.53125 0 "/></g></g></g></g><g clip-path="url(#0fe2d2c412)"><g fill="#000000" fill-opacity="1"><g transform="translate(649.960791, 206.789822)"><g><path d="M 7.53125 0 L 7.53125 -215.546875 L 49.1875 -215.546875 L 49.1875 0 Z M 7.53125 0 "/></g></g></g></g><g clip-path="url(#52642d1d40)"><g fill="#000000" fill-opacity="1"><g transform="translate(706.919397, 206.789822)"><g><path d="M 59.71875 2 C 43.988281 2 31.398438 -2.929688 21.953125 -12.796875 C 12.503906 -22.660156 7.78125 -36.210938 7.78125 -53.453125 L 7.78125 -152.8125 C 7.78125 -174.21875 12.046875 -190.359375 20.578125 -201.234375 C 29.109375 -212.109375 42.488281 -217.546875 60.71875 -217.546875 C 76.613281 -217.546875 89.410156 -213.195312 99.109375 -204.5 C 108.816406 -195.800781 113.671875 -183.253906 113.671875 -166.859375 L 113.671875 -129.734375 L 70.765625 -129.734375 L 70.765625 -161.59375 C 70.765625 -167.78125 70.007812 -172.046875 68.5 -174.390625 C 67 -176.734375 64.40625 -177.90625 60.71875 -177.90625 C 56.875 -177.90625 54.238281 -176.566406 52.8125 -173.890625 C 51.394531 -171.210938 50.6875 -167.28125 50.6875 -162.09375 L 50.6875 -53.953125 C 50.6875 -48.265625 51.519531 -44.125 53.1875 -41.53125 C 54.863281 -38.9375 57.375 -37.640625 60.71875 -37.640625 C 67.414062 -37.640625 70.765625 -43.078125 70.765625 -53.953125 L 70.765625 -92.84375 L 114.171875 -92.84375 L 114.171875 -52.1875 C 114.171875 -16.0625 96.019531 2 59.71875 2 Z M 59.71875 2 "/></g></g></g></g><g clip-path="url(#e24176b6d7)"><g fill="#000000" fill-opacity="1"><g transform="translate(825.855027, 206.789822)"><g><path d="M 9.53125 0 L 9.53125 -215.546875 L 52.1875 -215.546875 L 52.1875 -129.21875 L 72.265625 -215.546875 L 115.671875 -215.546875 L 91.59375 -116.921875 L 120.6875 0 L 76.03125 0 L 52.4375 -104.390625 L 52.4375 0 Z M 9.53125 0 "/></g></g></g></g><g clip-path="url(#5381b10c43)"><g fill="#000000" fill-opacity="1"><g transform="translate(526.52374, 591.014712)"><g><path d="M 9.25 0 L 9.25 -209.15625 L 73.046875 -209.15625 L 90.578125 -81.5625 L 108.109375 -209.15625 L 172.390625 -209.15625 L 172.390625 0 L 134.15625 0 L 134.15625 -150.71875 L 110.0625 0 L 72.5625 0 L 47 -150.71875 L 47 0 Z M 9.25 0 "/></g></g></g></g><g clip-path="url(#462748ff22)"><g fill="#000000" fill-opacity="1"><g transform="translate(708.166277, 591.014712)"><g><path d="M 3.65625 0 L 23.859375 -209.15625 L 94.71875 -209.15625 L 114.6875 0 L 75 0 L 72.078125 -33.84375 L 46.75 -33.84375 L 44.3125 0 Z M 49.921875 -67.203125 L 68.90625 -67.203125 L 59.65625 -173.609375 L 57.703125 -173.609375 Z M 49.921875 -67.203125 "/></g></g></g></g><g clip-path="url(#6d1c2a558b)"><g fill="#000000" fill-opacity="1"><g transform="translate(826.258285, 591.014712)"><g><path d="M 57.953125 1.953125 C 42.691406 1.953125 30.472656 -2.832031 21.296875 -12.40625 C 12.128906 -21.988281 7.546875 -35.140625 7.546875 -51.859375 L 7.546875 -148.28125 C 7.546875 -169.0625 11.6875 -184.722656 19.96875 -195.265625 C 28.25 -205.816406 41.234375 -211.09375 58.921875 -211.09375 C 74.335938 -211.09375 86.753906 -206.875 96.171875 -198.4375 C 105.585938 -190 110.296875 -177.828125 110.296875 -161.921875 L 110.296875 -125.875 L 68.65625 -125.875 L 68.65625 -156.796875 C 68.65625 -162.804688 67.925781 -166.945312 66.46875 -169.21875 C 65.007812 -171.488281 62.492188 -172.625 58.921875 -172.625 C 55.191406 -172.625 52.632812 -171.328125 51.25 -168.734375 C 49.875 -166.140625 49.1875 -162.328125 49.1875 -157.296875 L 49.1875 -52.34375 C 49.1875 -46.832031 49.992188 -42.816406 51.609375 -40.296875 C 53.234375 -37.773438 55.671875 -36.515625 58.921875 -36.515625 C 65.410156 -36.515625 68.65625 -41.789062 68.65625 -52.34375 L 68.65625 -90.09375 L 110.78125 -90.09375 L 110.78125 -50.640625 C 110.78125 -15.578125 93.171875 1.953125 57.953125 1.953125 Z M 57.953125 1.953125 "/></g></g></g></g><g clip-path="url(#2d1788ea6e)"><g fill="#000000" fill-opacity="1"><g transform="translate(941.671916, 591.014712)"><g><path d="M 9.25 0 L 9.25 -209.15625 L 50.640625 -209.15625 L 50.640625 -125.390625 L 70.125 -209.15625 L 112.25 -209.15625 L 88.875 -113.46875 L 117.109375 0 L 73.78125 0 L 50.890625 -101.296875 L 50.890625 0 Z M 9.25 0 "/></g></g></g></g></svg>